<?xml version="1.0" encoding="UTF-8"?>
<svg width="49px" height="48px" viewBox="0 0 49 48" version="1.1" xmlns="http://www.w3.org/2000/svg" xmlns:xlink="http://www.w3.org/1999/xlink">
    <!-- Generator: Sketch 47 (45396) - http://www.bohemiancoding.com/sketch -->
    <title>gktbIcons</title>
    <desc>Created with Sketch.</desc>
    <defs></defs>
    <g id="Page-1" stroke="none" stroke-width="1" fill="none" fill-rule="evenodd">
        <g id="Desktop" transform="translate(-1072.000000, -45.000000)" fill="#9B9B9B">
            <g id="Icons" transform="translate(1072.000000, 45.000000)">
                <path d="M24.2249789,0 C10.848293,0 0,10.8468057 0,24.2279535 C0,34.9319793 6.94118226,44.0118846 16.5684102,47.2155072 C17.7805515,47.4386006 18.2222766,46.6904938 18.2222766,46.0479845 C18.2222766,45.4738906 18.2014546,43.9494184 18.1895562,41.9281913 C11.4506454,43.3916847 10.0287962,38.6799501 10.0287962,38.6799501 C8.92671436,35.8808703 7.33828868,35.1357381 7.33828868,35.1357381 C5.13858682,33.6335752 7.50486515,33.663321 7.50486515,33.663321 C9.93658424,33.8343594 11.2156536,36.1604809 11.2156536,36.1604809 C13.3766859,39.8623456 16.8866902,38.7929841 18.2668953,38.1727842 C18.4870142,36.6081551 19.1131633,35.5402809 19.8047531,34.9349539 C14.4252253,34.3236778 8.76906162,32.2444464 8.76906162,22.9607824 C8.76906162,20.3163809 9.71349075,18.152374 11.2632469,16.459838 C11.0133822,15.8470746 10.1819871,13.3826351 11.5012133,10.048131 C11.5012133,10.048131 13.5343387,9.39669798 18.162785,12.5319052 C20.0947747,11.9935063 22.1680569,11.7257941 24.2279535,11.715383 C26.2863628,11.7257941 28.3581577,11.9935063 30.293122,12.5319052 C34.9185937,9.39669798 36.9487445,10.048131 36.9487445,10.048131 C38.2709453,13.3826351 37.4395502,15.8470746 37.1911728,16.459838 C38.7439035,18.152374 39.6808962,20.3163809 39.6808962,22.9607824 C39.6808962,32.268243 34.0158087,34.3162413 28.6199207,34.9156192 C29.4884981,35.663726 30.2633762,37.1420922 30.2633762,39.402773 C30.2633762,42.6406032 30.2336304,45.2537717 30.2336304,46.0479845 C30.2336304,46.696443 30.6708936,47.450499 31.8993951,47.2140199 C41.5191866,44.0029608 48.4544197,34.9290048 48.4544197,24.2279535 C48.4544197,10.8468057 37.6061267,0 24.2249789,0" id="icons/github"></path>
            </g>
        </g>
    </g>
</svg>