<?xml version="1.0" encoding="UTF-8"?>
<svg width="345px" height="97px" viewBox="0 0 345 97" version="1.1" xmlns="http://www.w3.org/2000/svg" xmlns:xlink="http://www.w3.org/1999/xlink">
    <!-- Generator: Sketch 47 (45396) - http://www.bohemiancoding.com/sketch -->
    <title>gktb-logo</title>
    <desc>Created with Sketch.</desc>
    <defs></defs>
    <g id="Page-1" stroke="none" stroke-width="1" fill="none" fill-rule="evenodd">
        <g id="Desktop" transform="translate(-219.000000, -20.000000)">
            <g id="logo" transform="translate(219.000000, 20.000000)">
                <path d="M0.5,61 L345.513043,61" id="Line" stroke="#AAAAAA" stroke-linecap="square" stroke-dasharray="2,4"></path>
                <path d="M261.483882,50.5 L329.507351,50.5" id="Line" stroke="#CCCCCC" stroke-linecap="square"></path>
                <path d="M261.483882,46.5 L308.5,46.5" id="Line" stroke="#CCCCCC" stroke-linecap="square"></path>
                <path d="M218,0.494791808 L218,96.5" id="Line" stroke="#AAAAAA" stroke-linecap="square" stroke-dasharray="3,3,3,3"></path>
                <path d="M223,12.5 L223,74.5" id="Line" stroke="#AAAAAA" stroke-linecap="square" stroke-dasharray="3,3,3,3"></path>
                <text id="technology-blog" font-family="AvenirNext-Regular, Avenir Next" font-size="18" font-weight="normal" fill="#9B9B9B">
                    <tspan x="107" y="89">technology blog</tspan>
                </text>
                <path d="M193.945625,53.7933074 C193.945625,56.3174319 193.351337,58.211284 190.998539,58.211284 C188.646715,58.211284 188.050478,56.3174319 188.050478,53.7933074 L188.050478,36 L183,36 L183,53.7953307 C183,60.6180545 186.896974,62 190.998539,62 C195.100104,62 199,60.2831907 199,53.7953307 L199,36 L193.945625,36 L193.945625,53.7953307 L193.945625,53.7933074 Z M201,61 L206.272413,61 L206.272413,50.6803363 L213.431388,50.6803363 L213.431388,46.6052193 L206.272413,46.6052193 L206.272413,40.1346078 L216,40.1346078 L216,36 L201,36 L201,61 Z M245.997944,36 C238.001371,36 237,41.3945038 237,49 C237,56.6054962 237.997258,62 245.997944,62 C253.998629,62 255,56.6015267 255,49 C255,41.3984733 253.998629,36 245.997944,36 Z M245.498037,58 C242.494672,58 242,55.3807107 242,48.5005076 C242,41.6172589 242.494672,39 245.498037,39 C248.501402,39 249,41.6497462 249,48.5005076 C249,55.3502538 248.502384,57.9969543 245.498037,57.9969543 L245.498037,58 Z M271,40.1346078 L271,36 L256,36 L256,61 L261.27038,61 L261.27038,50.6803363 L268.433421,50.6803363 L268.433421,46.6052193 L261.27038,46.6052193 L261.27038,40.1346078 L271,40.1346078 Z M228.952577,35.7184437 L228.953577,35.7174214 C232.651447,35.7174214 234.996999,37.652655 235,42.6241506 L235,62 L229.81378,62 L229.81378,44.3109628 C229.81378,41.1223766 229.183631,39.8915148 226.745058,39.8915148 C224.760591,39.8915148 223.18422,41.8052799 223.18422,44.9948884 L223.18422,61.9959108 L218,61.9959108 L218,28 L223.181219,28 L223.181219,37.9716159 C224.539539,35.8769018 227.207166,35.7184437 228.952577,35.7184437 Z M170,51 L172.484914,40 L175,51 L170,51 L170,51 Z M168.757193,36.0069387 L162.714787,58.1650609 L156.470032,46.7261806 L163.472091,36.0148686 L157.836385,36.0148686 L151.204964,46.0233932 L151.204964,36.0069387 L146,36.0069387 L146,61 L151.19695,61 L151.19695,53.5795964 L153.110245,50.7446572 L158.417385,61 L167.352774,61 L168.750181,54.7452916 L175.176248,54.7452916 L176.584674,60.9900876 L182,60.9900876 L175.18326,36 L168.757193,36.0099124 L168.757193,36.0069387 Z" id="KAUFHOF" stroke="#AAAAAA"></path>
                <g id="GALERIA" transform="translate(34.000000, 36.000000)" stroke="#AAAAAA">
                    <path d="M71.077904,12 L68,12 L68,2 L71.34083,2 C75.6321586,2 77,3.89320388 77,7 C77,10.3272654 74.8162532,11.9757282 71.0810341,11.9757282 L71.0810341,11.9989887 L71.077904,12 Z" id="Path"></path>
                    <polygon id="Path" points="24.5661703 0 17 25 19.4397865 25 21.5397022 17.6604777 30.466367 17.6604777 32.5602135 25 35 25 27.4338297 0.000991827343 24.5661703 0.000991827343"></polygon>
                    <polygon id="Path" points="22 16 26.0040816 2 30 15.9900071"></polygon>
                    <polygon id="Path" points="84 0 86 0 86 25 84 25"></polygon>
                    <path d="M74.6850263,12.6383544 C78.08233,12.0184869 79.3005551,9.2781767 79.3005551,6.26810013 C79.3005551,2.38029119 76.9367746,0 72.6815659,0 L66,0 L66,25 L68.291111,25 L68.291111,13.5646844 L71.679331,13.5646844 C75.7952563,13.5646844 77.439406,14.7072242 77.5837359,19.1186972 L77.900656,24.9801642 L80,24.9801642 L79.6820705,18.5732138 C79.5781126,14.7290435 77.870377,12.907129 74.6860356,12.6373626 L74.6850263,12.6383544 Z" id="Path"></path>
                    <polygon id="Path" points="52.2929293 13.5915493 61.9959596 13.5915493 61.9959596 11.6970839 52.2929293 11.6970839 52.2929293 1.88950605 62.9959596 1.88950605 62.9959596 0 50 0 50 25 63 25 63 23.1114858 52.2929293 23.1114858"></polygon>
                    <polygon id="Path" points="38.2314567 0 36 0 36 25 47 25 47 23.1114858 38.2314567 23.1114858"></polygon>
                    <polygon id="Path" points="98.4408094 0 95.5703204 0 88 25 90.4384486 25 92.5288364 17.6601865 101.456998 17.6601865 103.561551 25 106 25 98.4438449 0.000991866693"></polygon>
                    <polygon id="Path" points="93 15.996 96.9989799 2 101 16"></polygon>
                    <path d="M8.41775323,1.90038168 C11.8933779,1.90038168 13.6332456,4.43587786 13.6332456,7.47251908 L16,7.47251908 C15.7019719,3.1378626 13.4482626,0 8.42186396,0 C3.02652707,0 0,3.98236641 0,13 C0,22.0166412 3.03166549,26 8.42083628,26 C12.8059606,26 15.9989723,23.5240458 15.9989723,17.7236641 L15.9989723,12.1981679 L7.69220888,12.1981679 L7.69220888,14.0985496 L13.8141178,14.0985496 L13.8141178,17.7167176 C13.8141178,22.1992366 11.3990622,24.0936641 8.42597469,24.0936641 C4.65437729,24.0936641 2.36264372,21.1334351 2.36264372,12.9950382 C2.36264372,4.85763359 4.64923887,1.89839695 8.41878091,1.89839695 L8.41775323,1.90038168 Z" id="Path"></path>
                </g>
                <text id="360°" font-family="AvenirNext-Regular, Avenir Next" font-size="6" font-weight="normal" fill="#AAAAAA">
                    <tspan x="229" y="18">360°</tspan>
                </text>
            </g>
        </g>
    </g>
</svg>