<?xml version="1.0" encoding="UTF-8"?>
<svg width="254px" height="117px" viewBox="0 0 254 117" version="1.1" xmlns="http://www.w3.org/2000/svg" xmlns:xlink="http://www.w3.org/1999/xlink">
    <!-- Generator: Sketch 47 (45396) - http://www.bohemiancoding.com/sketch -->
    <title>gktbGroup 2</title>
    <desc>Created with Sketch.</desc>
    <defs></defs>
    <g id="Page-1" stroke="none" stroke-width="1" fill="none" fill-rule="evenodd">
        <g id="Desktop" transform="translate(-240.000000, -582.000000)" fill="#FFFFFF">
            <g id="Footer" transform="translate(0.000000, 282.000000)">
                <g id="Group-2" transform="translate(241.000000, 301.000000)">
                    <polygon id="Polygon" stroke="#9B9B9B" points="152.25 75 160 88.5 152.25 102 136.75 102 129 88.5 136.75 75"></polygon>
                    <polygon id="Polygon" stroke="#CCCCCC" points="129.25 88 137 101.5 129.25 115 113.75 115 106 101.5 113.75 88"></polygon>
                    <polygon id="Polygon" stroke="#9B9B9B" points="175.25 61 183 74.5 175.25 88 159.75 88 152 74.5 159.75 61"></polygon>
                    <polygon id="Polygon" stroke="#CCCCCC" points="175.25 88 183 101.5 175.25 115 159.75 115 152 101.5 159.75 88"></polygon>
                    <polygon id="Polygon" stroke="#9B9B9B" points="198.25 75 206 88.5 198.25 102 182.75 102 175 88.5 182.75 75"></polygon>
                    <polygon id="Polygon" stroke="#9B9B9B" points="221.25 61 229 74.5 221.25 88 205.75 88 198 74.5 205.75 61"></polygon>
                    <polygon id="Polygon" stroke="#CCCCCC" points="221.25 34 229 47.5 221.25 61 205.75 61 198 47.5 205.75 34"></polygon>
                    <polygon id="Polygon" stroke="#CCCCCC" stroke-dasharray="2" points="244.25 20 252 33.5 244.25 47 228.75 47 221 33.5 228.75 20"></polygon>
                    <polygon id="Polygon" stroke="#CCCCCC" stroke-dasharray="2" points="169.25 20 177 33.5 169.25 47 153.75 47 146 33.5 153.75 20"></polygon>
                    <polygon id="Polygon" stroke="#CCCCCC" stroke-dasharray="2" points="23.25 0 31 13.5 23.25 27 7.75 27 -1.77635684e-15 13.5 7.75 6.05733246e-15"></polygon>
                    <polygon id="Polygon" stroke="#CCCCCC" points="221.25 88 229 101.5 221.25 115 205.75 115 198 101.5 205.75 88"></polygon>
                    <polygon id="Polygon" stroke="#CCCCCC" points="244.25 75 252 88.5 244.25 102 228.75 102 221 88.5 228.75 75"></polygon>
                </g>
            </g>
        </g>
    </g>
</svg>