<svg version="1.1" xmlns="http://www.w3.org/2000/svg" xmlns:xlink="http://www.w3.org/1999/xlink" width="511" height="470"><style xmlns="http://www.w3.org/1999/xhtml"></style><defs/><g transform="translate(0,0)"><g><rect fill="#FFFFFF" stroke="none" x="0" y="0" width="511" height="470"/></g><g transform="translate(0,0) matrix(1,0,0,1,60,150)"><g><g transform="translate(0,0) scale(0.9,0.9)"><g><path fill="#FFFFFF" stroke="none" d="M 100 50 A 50 50 0 1 0 99.99997500000208 50.04999999166668 Z"/><g transform="scale(1.1111111111111112,1.1111111111111112)"><path fill="none" stroke="#333333" d="M 45 0 M 45 0 C 69.8528115 0 90 20.147188500000002 90 45 C 90 69.8528115 69.8528115 90 45 90 C 20.147188500000002 90 0 69.8528115 0 45 C 0 20.147188500000002 20.147188500000002 0 45 0 Z" stroke-miterlimit="10" stroke-width="2"/></g></g></g></g></g><g transform="matrix(1,0,0,1,70,188)"><g><g/></g><g><g/></g><g><g/></g><g><g/><text fill="rgb(0, 0, 0)" stroke="none" font-family="&quot;Arial&quot;" font-size="12px" font-style="normal" font-weight="normal" text-decoration="" line-height="14px" x="32.149993896484375" y="11">5</text></g><g><g/></g></g><g transform="translate(0,0) matrix(1,0,0,1,230,10)"><g><g transform="translate(0,0) scale(0.9,0.9)"><g><path fill="#FFFFFF" stroke="none" d="M 100 50 A 50 50 0 1 0 99.99997500000208 50.04999999166668 Z"/><g transform="scale(1.1111111111111112,1.1111111111111112)"><path fill="none" stroke="#333333" d="M 45 0 M 45 0 C 69.8528115 0 90 20.147188500000002 90 45 C 90 69.8528115 69.8528115 90 45 90 C 20.147188500000002 90 0 69.8528115 0 45 C 0 20.147188500000002 20.147188500000002 0 45 0 Z" stroke-miterlimit="10" stroke-width="2"/></g></g></g></g></g><g transform="matrix(1,0,0,1,240,48)"><g><g/></g><g><g/></g><g><g/></g><g><g/><text fill="rgb(0, 0, 0)" stroke="none" font-family="&quot;Arial&quot;" font-size="12px" font-style="normal" font-weight="normal" text-decoration="" line-height="14px" x="32.149993896484375" y="11">1</text></g><g><g/></g></g><g transform="matrix(1,0,0,1,100.5,50.5)"><g transform="translate(0,0)"><g transform="translate(-54,-133) translate(-46.5,82.5) matrix(1,0,0,1,0,0)"><g><path fill="none" stroke="#000000" d="M 105 150 L 230 55" stroke-miterlimit="10" stroke-width="2"/></g></g></g></g><g transform="translate(0,0) matrix(1,0,0,1,105,360)"><g><g transform="translate(0,0) scale(0.9,0.9)"><g><path fill="#FFFFFF" stroke="none" d="M 100 50 A 50 50 0 1 0 99.99997500000208 50.04999999166668 Z"/><g transform="scale(1.1111111111111112,1.1111111111111112)"><path fill="none" stroke="#333333" d="M 45 0 M 45 0 C 69.8528115 0 90 20.147188500000002 90 45 C 90 69.8528115 69.8528115 90 45 90 C 20.147188500000002 90 0 69.8528115 0 45 C 0 20.147188500000002 20.147188500000002 0 45 0 Z" stroke-miterlimit="10" stroke-width="2"/></g></g></g></g></g><g transform="matrix(1,0,0,1,115,398)"><g><g/></g><g><g/></g><g><g/></g><g><g/><text fill="rgb(0, 0, 0)" stroke="none" font-family="&quot;Arial&quot;" font-size="12px" font-style="normal" font-weight="normal" text-decoration="" line-height="14px" x="32.149993896484375" y="11">4</text></g><g><g/></g></g><g transform="matrix(1,0,0,1,100.5,235.5)"><g transform="translate(0,0)"><g transform="translate(34,-135) translate(-134.5,-100.5) matrix(1,0,0,1,0,0)"><g><path fill="none" stroke="#000000" d="M 105 240 L 150 360" stroke-miterlimit="10" stroke-width="2"/></g></g></g></g><g transform="translate(0,0) matrix(1,0,0,1,395,150)"><g><g transform="translate(0,0) scale(0.9,0.9)"><g><path fill="#FFFFFF" stroke="none" d="M 100 50 A 50 50 0 1 0 99.99997500000208 50.04999999166668 Z"/><g transform="scale(1.1111111111111112,1.1111111111111112)"><path fill="none" stroke="#333333" d="M 45 0 M 45 0 C 69.8528115 0 90 20.147188500000002 90 45 C 90 69.8528115 69.8528115 90 45 90 C 20.147188500000002 90 0 69.8528115 0 45 C 0 20.147188500000002 20.147188500000002 0 45 0 Z" stroke-miterlimit="10" stroke-width="2"/></g></g></g></g></g><g transform="matrix(1,0,0,1,405,188)"><g><g/></g><g><g/></g><g><g/></g><g><g/><text fill="rgb(0, 0, 0)" stroke="none" font-family="&quot;Arial&quot;" font-size="12px" font-style="normal" font-weight="normal" text-decoration="" line-height="14px" x="32.149993896484375" y="11">2</text></g><g><g/></g></g><g transform="matrix(1,0,0,1,315.5,50.5)"><g transform="translate(0,0)"><g transform="translate(-328,-101) translate(12.5,50.5) matrix(1,0,0,1,0,0)"><g><path fill="none" stroke="#000000" d="M 320 55 L 440 150" stroke-miterlimit="10" stroke-width="2"/></g></g></g></g><g transform="translate(0,0) matrix(1,0,0,1,350,360)"><g><g transform="translate(0,0) scale(0.9,0.9)"><g><path fill="#FFFFFF" stroke="none" d="M 100 50 A 50 50 0 1 0 99.99997500000208 50.04999999166668 Z"/><g transform="scale(1.1111111111111112,1.1111111111111112)"><path fill="none" stroke="#333333" d="M 45 0 M 45 0 C 69.8528115 0 90 20.147188500000002 90 45 C 90 69.8528115 69.8528115 90 45 90 C 20.147188500000002 90 0 69.8528115 0 45 C 0 20.147188500000002 20.147188500000002 0 45 0 Z" stroke-miterlimit="10" stroke-width="2"/></g></g></g></g></g><g transform="matrix(1,0,0,1,360,398)"><g><g/></g><g><g/></g><g><g/></g><g><g/><text fill="rgb(0, 0, 0)" stroke="none" font-family="&quot;Arial&quot;" font-size="12px" font-style="normal" font-weight="normal" text-decoration="" line-height="14px" x="32.149993896484375" y="11">3</text></g><g><g/></g></g><g transform="matrix(1,0,0,1,390.5,235.5)"><g transform="translate(0,0)"><g transform="translate(-497,-261) translate(106.5,25.5) matrix(1,0,0,1,0,0)"><g><path fill="none" stroke="#000000" d="M 440 240 L 395 360" stroke-miterlimit="10" stroke-width="2"/></g></g></g></g><g transform="matrix(1,0,0,1,190.5,400.5)"><g transform="translate(0,0)"><g transform="translate(-192,-426) translate(1.5,25.5) matrix(1,0,0,1,0,0)"><g><path fill="none" stroke="#000000" d="M 195 405 L 350 405" stroke-miterlimit="10" stroke-width="2"/></g></g></g></g></g></svg>