<svg version="1.1" xmlns="http://www.w3.org/2000/svg" xmlns:xlink="http://www.w3.org/1999/xlink" width="608" height="490"><style xmlns="http://www.w3.org/1999/xhtml"></style><defs/><g transform="translate(0,0)"><g><rect fill="#FFFFFF" stroke="none" x="0" y="0" width="608" height="490"/></g><g transform="translate(0,0) matrix(1,0,0,1,60,170)"><g><g transform="translate(0,0) scale(0.9,0.9)"><g><path fill="#FFFFFF" stroke="none" d="M 100 50 A 50 50 0 1 0 99.99997500000208 50.04999999166668 Z"/><g transform="scale(1.1111111111111112,1.1111111111111112)"><path fill="none" stroke="#333333" d="M 45 0 M 45 0 C 69.8528115 0 90 20.147188500000002 90 45 C 90 69.8528115 69.8528115 90 45 90 C 20.147188500000002 90 0 69.8528115 0 45 C 0 20.147188500000002 20.147188500000002 0 45 0 Z" stroke-miterlimit="10" stroke-width="2"/></g></g></g></g></g><g transform="matrix(1,0,0,1,70,208)"><g><g/></g><g><g/></g><g><g/></g><g><g/><text fill="rgb(0, 0, 0)" stroke="none" font-family="&quot;Arial&quot;" font-size="12px" font-style="normal" font-weight="normal" text-decoration="" line-height="14px" x="32.149993896484375" y="11">5</text></g><g><g/></g></g><g transform="translate(0,0) matrix(1,0,0,1,230,30)"><g><g transform="translate(0,0) scale(0.9,0.9)"><g><path fill="#FFFFFF" stroke="none" d="M 100 50 A 50 50 0 1 0 99.99997500000208 50.04999999166668 Z"/><g transform="scale(1.1111111111111112,1.1111111111111112)"><path fill="none" stroke="#333333" d="M 45 0 M 45 0 C 69.8528115 0 90 20.147188500000002 90 45 C 90 69.8528115 69.8528115 90 45 90 C 20.147188500000002 90 0 69.8528115 0 45 C 0 20.147188500000002 20.147188500000002 0 45 0 Z" stroke-miterlimit="10" stroke-width="2"/></g></g></g></g></g><g transform="matrix(1,0,0,1,240,68)"><g><g/></g><g><g/></g><g><g/></g><g><g/><text fill="rgb(0, 0, 0)" stroke="none" font-family="&quot;Arial&quot;" font-size="12px" font-style="normal" font-weight="normal" text-decoration="" line-height="14px" x="32.149993896484375" y="11">1</text></g><g><g/></g></g><g transform="matrix(1,0,0,1,100.5,70.5)"><g transform="translate(0,0)"><g transform="translate(-54,-153) translate(-46.5,82.5) matrix(1,0,0,1,0,0)"><g><path fill="none" stroke="#000000" d="M 105 170 L 230 75" stroke-miterlimit="10" stroke-width="2"/></g></g></g></g><g transform="translate(0,0) matrix(1,0,0,1,105,380)"><g><g transform="translate(0,0) scale(0.9,0.9)"><g><path fill="#FFFFFF" stroke="none" d="M 100 50 A 50 50 0 1 0 99.99997500000208 50.04999999166668 Z"/><g transform="scale(1.1111111111111112,1.1111111111111112)"><path fill="none" stroke="#333333" d="M 45 0 M 45 0 C 69.8528115 0 90 20.147188500000002 90 45 C 90 69.8528115 69.8528115 90 45 90 C 20.147188500000002 90 0 69.8528115 0 45 C 0 20.147188500000002 20.147188500000002 0 45 0 Z" stroke-miterlimit="10" stroke-width="2"/></g></g></g></g></g><g transform="matrix(1,0,0,1,115,418)"><g><g/></g><g><g/></g><g><g/></g><g><g/><text fill="rgb(0, 0, 0)" stroke="none" font-family="&quot;Arial&quot;" font-size="12px" font-style="normal" font-weight="normal" text-decoration="" line-height="14px" x="32.149993896484375" y="11">4</text></g><g><g/></g></g><g transform="matrix(1,0,0,1,100.5,255.5)"><g transform="translate(0,0)"><g transform="translate(34,-155) translate(-134.5,-100.5) matrix(1,0,0,1,0,0)"><g><path fill="none" stroke="#000000" d="M 105 260 L 150 380" stroke-miterlimit="10" stroke-width="2"/></g></g></g></g><g transform="translate(0,0) matrix(1,0,0,1,395,170)"><g><g transform="translate(0,0) scale(0.9,0.9)"><g><path fill="#FFFFFF" stroke="none" d="M 100 50 A 50 50 0 1 0 99.99997500000208 50.04999999166668 Z"/><g transform="scale(1.1111111111111112,1.1111111111111112)"><path fill="none" stroke="#333333" d="M 45 0 M 45 0 C 69.8528115 0 90 20.147188500000002 90 45 C 90 69.8528115 69.8528115 90 45 90 C 20.147188500000002 90 0 69.8528115 0 45 C 0 20.147188500000002 20.147188500000002 0 45 0 Z" stroke-miterlimit="10" stroke-width="2"/></g></g></g></g></g><g transform="matrix(1,0,0,1,405,208)"><g><g/></g><g><g/></g><g><g/></g><g><g/><text fill="rgb(0, 0, 0)" stroke="none" font-family="&quot;Arial&quot;" font-size="12px" font-style="normal" font-weight="normal" text-decoration="" line-height="14px" x="32.149993896484375" y="11">2</text></g><g><g/></g></g><g transform="matrix(1,0,0,1,315.5,70.5)"><g transform="translate(0,0)"><g transform="translate(-328,-121) translate(12.5,50.5) matrix(1,0,0,1,0,0)"><g><path fill="none" stroke="#000000" d="M 320 75 L 440 170" stroke-miterlimit="10" stroke-width="2"/></g></g></g></g><g transform="translate(0,0) matrix(1,0,0,1,350,380)"><g><g transform="translate(0,0) scale(0.9,0.9)"><g><path fill="#FFFFFF" stroke="none" d="M 100 50 A 50 50 0 1 0 99.99997500000208 50.04999999166668 Z"/><g transform="scale(1.1111111111111112,1.1111111111111112)"><path fill="none" stroke="#333333" d="M 45 0 M 45 0 C 69.8528115 0 90 20.147188500000002 90 45 C 90 69.8528115 69.8528115 90 45 90 C 20.147188500000002 90 0 69.8528115 0 45 C 0 20.147188500000002 20.147188500000002 0 45 0 Z" stroke-miterlimit="10" stroke-width="2"/></g></g></g></g></g><g transform="matrix(1,0,0,1,360,418)"><g><g/></g><g><g/></g><g><g/></g><g><g/><text fill="rgb(0, 0, 0)" stroke="none" font-family="&quot;Arial&quot;" font-size="12px" font-style="normal" font-weight="normal" text-decoration="" line-height="14px" x="32.149993896484375" y="11">3</text></g><g><g/></g></g><g transform="matrix(1,0,0,1,390.5,255.5)"><g transform="translate(0,0)"><g transform="translate(-497,-281) translate(106.5,25.5) matrix(1,0,0,1,0,0)"><g><path fill="none" stroke="#000000" d="M 440 260 L 395 380" stroke-miterlimit="10" stroke-width="2"/></g></g></g></g><g transform="matrix(1,0,0,1,190.5,420.5)"><g transform="translate(0,0)"><g transform="translate(-192,-446) translate(1.5,25.5) matrix(1,0,0,1,0,0)"><g><path fill="none" stroke="#000000" d="M 195 425 L 350 425" stroke-miterlimit="10" stroke-width="2"/></g></g></g></g><g transform="matrix(1,0,0,1,262,30)"><g><g/></g><g><g/></g><g><g/></g><g><g/></g><g><g/><text fill="rgb(0, 0, 0)" stroke="none" font-family="&quot;Arial&quot;" font-size="18px" font-style="normal" font-weight="700" text-decoration="" line-height="20.5px" x="60.46665954589844" y="16">0</text><text fill="rgb(0, 0, 0)" stroke="none" font-family="&quot;Arial&quot;" font-size="18px" font-style="normal" font-weight="700" text-decoration="" line-height="20.5px" x="70.48333740234375" y="16">-</text><text fill="rgb(0, 0, 0)" stroke="none" font-family="&quot;Arial&quot;" font-size="18px" font-style="normal" font-weight="700" text-decoration="" line-height="20.5px" x="76.48333740234375" y="16">9</text></g><g><g/></g><g><g/></g><g><g/></g></g><g transform="matrix(1,0,0,1,442,170)"><g><g/></g><g><g/></g><g><g/></g><g><g/></g><g><g/><text fill="rgb(0, 0, 0)" stroke="none" font-family="&quot;Arial&quot;" font-size="18px" font-style="normal" font-weight="700" text-decoration="" line-height="20.5px" x="50.44999694824219" y="16">10</text><text fill="rgb(0, 0, 0)" stroke="none" font-family="&quot;Arial&quot;" font-size="18px" font-style="normal" font-weight="700" text-decoration="" line-height="20.5px" x="70.48333740234375" y="16">-</text><text fill="rgb(0, 0, 0)" stroke="none" font-family="&quot;Arial&quot;" font-size="18px" font-style="normal" font-weight="700" text-decoration="" line-height="20.5px" x="76.48333740234375" y="16">19</text></g><g><g/></g><g><g/></g><g><g/></g></g><g transform="matrix(1,0,0,1,397,380)"><g><g/></g><g><g/></g><g><g/></g><g><g/></g><g><g/><text fill="rgb(0, 0, 0)" stroke="none" font-family="&quot;Arial&quot;" font-size="18px" font-style="normal" font-weight="700" text-decoration="" line-height="20.5px" x="50.44999694824219" y="16">20</text><text fill="rgb(0, 0, 0)" stroke="none" font-family="&quot;Arial&quot;" font-size="18px" font-style="normal" font-weight="700" text-decoration="" line-height="20.5px" x="70.48333740234375" y="16">-</text><text fill="rgb(0, 0, 0)" stroke="none" font-family="&quot;Arial&quot;" font-size="18px" font-style="normal" font-weight="700" text-decoration="" line-height="20.5px" x="76.48333740234375" y="16">29</text></g><g><g/></g><g><g/></g><g><g/></g></g><g transform="matrix(1,0,0,1,2,370)"><g><g/></g><g><g/></g><g><g/></g><g><g/></g><g><g/><text fill="rgb(0, 0, 0)" stroke="none" font-family="&quot;Arial&quot;" font-size="18px" font-style="normal" font-weight="700" text-decoration="" line-height="20.5px" x="50.44999694824219" y="16">30</text><text fill="rgb(0, 0, 0)" stroke="none" font-family="&quot;Arial&quot;" font-size="18px" font-style="normal" font-weight="700" text-decoration="" line-height="20.5px" x="70.48333740234375" y="16">-</text><text fill="rgb(0, 0, 0)" stroke="none" font-family="&quot;Arial&quot;" font-size="18px" font-style="normal" font-weight="700" text-decoration="" line-height="20.5px" x="76.48333740234375" y="16">39</text></g><g><g/></g><g><g/></g><g><g/></g></g><g transform="matrix(1,0,0,1,-13,139)"><g><g/></g><g><g/></g><g><g/></g><g><g/></g><g><g/><text fill="rgb(0, 0, 0)" stroke="none" font-family="&quot;Arial&quot;" font-size="18px" font-style="normal" font-weight="700" text-decoration="" line-height="20.5px" x="50.44999694824219" y="16">40</text><text fill="rgb(0, 0, 0)" stroke="none" font-family="&quot;Arial&quot;" font-size="18px" font-style="normal" font-weight="700" text-decoration="" line-height="20.5px" x="70.48333740234375" y="16">-</text><text fill="rgb(0, 0, 0)" stroke="none" font-family="&quot;Arial&quot;" font-size="18px" font-style="normal" font-weight="700" text-decoration="" line-height="20.5px" x="76.48333740234375" y="16">49</text></g><g><g/></g><g><g/></g><g><g/></g></g></g></svg>