<?xml version="1.0" encoding="utf-8"?>
<!-- Generator: Adobe Illustrator 18.1.1, SVG Export Plug-In . SVG Version: 6.00 Build 0)  -->
<svg version="1.1" id="Ebene_1" xmlns="http://www.w3.org/2000/svg" xmlns:xlink="http://www.w3.org/1999/xlink" x="0px" y="0px"
	 viewBox="0 0 200 50" enable-background="new 0 0 200 50" xml:space="preserve">
<g>
	<path d="M24.5,28.4c-0.1,0.7-0.4,1.3-0.9,1.9c-0.5,0.6-1.1,1.1-2,1.5c-0.9,0.4-2.1,0.6-3.5,0.6c-0.6,0-1.3-0.1-1.9-0.2
		c-0.7-0.2-1.3-0.4-1.8-0.7c-0.5-0.3-1-0.8-1.4-1.3s-0.6-1.2-0.6-1.9h3.5c0.2,0.7,0.5,1.1,1,1.4c0.5,0.3,1,0.4,1.7,0.4
		c1,0,1.7-0.3,2.2-0.9c0.5-0.6,0.7-1.4,0.7-2.3v-1.7h0c-0.4,0.7-0.9,1.2-1.6,1.5c-0.7,0.3-1.5,0.5-2.2,0.5c-1,0-1.8-0.2-2.5-0.5
		c-0.7-0.3-1.3-0.8-1.7-1.4c-0.5-0.6-0.8-1.3-1-2.1c-0.2-0.8-0.3-1.6-0.3-2.5c0-0.8,0.1-1.6,0.4-2.4c0.2-0.8,0.6-1.5,1.1-2
		c0.5-0.6,1-1.1,1.7-1.4s1.5-0.5,2.4-0.5c0.9,0,1.6,0.2,2.2,0.5s1.2,0.8,1.6,1.6h0v-1.7h3.4v12.1C24.7,27.1,24.6,27.7,24.5,28.4z
		 M19.6,24.1c0.4-0.2,0.7-0.5,0.9-0.8s0.4-0.7,0.6-1.1c0.1-0.4,0.2-0.9,0.2-1.3c0-0.5,0-1-0.1-1.5c-0.1-0.5-0.3-0.9-0.5-1.3
		s-0.5-0.7-0.9-0.9c-0.4-0.2-0.9-0.3-1.5-0.3c-0.5,0-0.9,0.1-1.3,0.3c-0.4,0.2-0.7,0.5-0.9,0.8c-0.2,0.3-0.4,0.7-0.5,1.2
		c-0.1,0.4-0.2,0.9-0.2,1.4c0,0.5,0,0.9,0.1,1.4c0.1,0.5,0.2,0.9,0.5,1.2c0.2,0.4,0.5,0.7,0.9,0.9c0.4,0.2,0.8,0.4,1.4,0.4
		C18.8,24.4,19.2,24.3,19.6,24.1z"/>
	<path d="M27.4,18.5c0-0.8,0.3-1.5,0.6-2.1c0.4-0.6,0.8-1,1.4-1.3c0.6-0.3,1.2-0.6,1.9-0.7c0.7-0.1,1.4-0.2,2.1-0.2
		c0.6,0,1.3,0,2,0.1c0.7,0.1,1.3,0.3,1.8,0.5c0.5,0.3,1,0.6,1.3,1.1c0.4,0.5,0.5,1.1,0.5,1.9v6.7c0,0.6,0,1.1,0.1,1.7
		s0.2,0.9,0.4,1.2H36c-0.1-0.2-0.1-0.4-0.2-0.6c0-0.2-0.1-0.4-0.1-0.6c-0.6,0.6-1.2,1-2,1.2s-1.5,0.4-2.3,0.4
		c-0.6,0-1.2-0.1-1.7-0.2c-0.5-0.1-1-0.4-1.4-0.7c-0.4-0.3-0.7-0.7-0.9-1.2c-0.2-0.5-0.3-1.1-0.3-1.7c0-0.7,0.1-1.3,0.4-1.8
		c0.3-0.5,0.6-0.9,1-1.1c0.4-0.3,0.9-0.5,1.4-0.6s1.1-0.3,1.6-0.3c0.5-0.1,1.1-0.1,1.6-0.2c0.5-0.1,1-0.1,1.4-0.2s0.7-0.2,1-0.4
		c0.2-0.2,0.3-0.5,0.3-0.8c0-0.4-0.1-0.7-0.2-0.9s-0.3-0.4-0.5-0.5s-0.4-0.2-0.7-0.2c-0.3,0-0.6-0.1-0.9-0.1c-0.7,0-1.2,0.1-1.6,0.4
		c-0.4,0.3-0.6,0.8-0.7,1.5H27.4z M35.6,21.1c-0.1,0.1-0.3,0.2-0.6,0.3c-0.2,0.1-0.5,0.1-0.7,0.2c-0.3,0.1-0.5,0.1-0.8,0.1
		c-0.3,0-0.6,0.1-0.8,0.1c-0.3,0.1-0.5,0.1-0.8,0.2c-0.3,0.1-0.5,0.2-0.7,0.3c-0.2,0.1-0.3,0.3-0.5,0.5c-0.1,0.2-0.2,0.5-0.2,0.8
		c0,0.3,0.1,0.6,0.2,0.8c0.1,0.2,0.3,0.4,0.5,0.5s0.4,0.2,0.7,0.3c0.3,0.1,0.5,0.1,0.8,0.1c0.7,0,1.2-0.1,1.6-0.4s0.7-0.5,0.9-0.8
		c0.2-0.3,0.3-0.7,0.3-1c0-0.3,0.1-0.6,0.1-0.8V21.1z"/>
	<path d="M45.5,9.6v17.9H42V9.6H45.5z"/>
	<path d="M52.1,24.3c0.5,0.5,1.3,0.8,2.3,0.8c0.7,0,1.3-0.2,1.8-0.5s0.8-0.7,1-1.1h3.1c-0.5,1.5-1.3,2.7-2.3,3.3c-1,0.7-2.3,1-3.8,1
		c-1,0-1.9-0.2-2.8-0.5c-0.8-0.3-1.5-0.8-2.1-1.4c-0.6-0.6-1-1.3-1.3-2.2c-0.3-0.8-0.5-1.8-0.5-2.8c0-1,0.2-1.9,0.5-2.7
		c0.3-0.8,0.8-1.6,1.3-2.2s1.3-1.1,2.1-1.4c0.8-0.4,1.7-0.5,2.7-0.5c1.1,0,2.1,0.2,2.9,0.6c0.8,0.4,1.5,1,2,1.7s0.9,1.5,1.1,2.4
		c0.2,0.9,0.3,1.9,0.2,2.9h-9.3C51.3,23,51.6,23.8,52.1,24.3z M56.1,17.5c-0.4-0.5-1.1-0.7-1.9-0.7c-0.6,0-1,0.1-1.4,0.3
		c-0.4,0.2-0.7,0.4-0.9,0.7c-0.2,0.3-0.4,0.6-0.5,0.9c-0.1,0.3-0.1,0.6-0.2,0.9H57C56.9,18.7,56.6,18,56.1,17.5z"/>
	<path d="M66.1,14.5v2.4h0c0.2-0.4,0.4-0.8,0.7-1.1c0.3-0.3,0.6-0.6,1-0.9c0.4-0.2,0.8-0.4,1.2-0.6c0.4-0.1,0.9-0.2,1.3-0.2
		c0.2,0,0.5,0,0.8,0.1v3.3c-0.2,0-0.4-0.1-0.6-0.1c-0.2,0-0.5,0-0.7,0c-0.6,0-1.2,0.1-1.6,0.3c-0.5,0.2-0.8,0.5-1.1,0.9
		s-0.5,0.8-0.6,1.3c-0.1,0.5-0.2,1-0.2,1.6v5.8h-3.5V14.5H66.1z"/>
	<path d="M72.5,12.5V9.6h3.5v2.9H72.5z M76.1,14.5v12.9h-3.5V14.5H76.1z"/>
	<path d="M78.7,18.5c0-0.8,0.3-1.5,0.6-2.1c0.4-0.6,0.8-1,1.4-1.3c0.6-0.3,1.2-0.6,1.9-0.7c0.7-0.1,1.4-0.2,2.1-0.2
		c0.6,0,1.3,0,2,0.1c0.7,0.1,1.3,0.3,1.8,0.5c0.5,0.3,1,0.6,1.3,1.1c0.4,0.5,0.5,1.1,0.5,1.9v6.7c0,0.6,0,1.1,0.1,1.7
		s0.2,0.9,0.4,1.2h-3.6c-0.1-0.2-0.1-0.4-0.2-0.6c0-0.2-0.1-0.4-0.1-0.6c-0.6,0.6-1.2,1-2,1.2s-1.5,0.4-2.3,0.4
		c-0.6,0-1.2-0.1-1.7-0.2c-0.5-0.1-1-0.4-1.4-0.7c-0.4-0.3-0.7-0.7-0.9-1.2c-0.2-0.5-0.3-1.1-0.3-1.7c0-0.7,0.1-1.3,0.4-1.8
		c0.3-0.5,0.6-0.9,1-1.1c0.4-0.3,0.9-0.5,1.4-0.6s1.1-0.3,1.6-0.3c0.5-0.1,1.1-0.1,1.6-0.2c0.5-0.1,1-0.1,1.4-0.2s0.7-0.2,1-0.4
		c0.2-0.2,0.3-0.5,0.3-0.8c0-0.4-0.1-0.7-0.2-0.9s-0.3-0.4-0.5-0.5s-0.4-0.2-0.7-0.2c-0.3,0-0.6-0.1-0.9-0.1c-0.7,0-1.2,0.1-1.6,0.4
		c-0.4,0.3-0.6,0.8-0.7,1.5H78.7z M86.9,21.1c-0.1,0.1-0.3,0.2-0.6,0.3c-0.2,0.1-0.5,0.1-0.7,0.2c-0.3,0.1-0.5,0.1-0.8,0.1
		c-0.3,0-0.6,0.1-0.8,0.1c-0.3,0.1-0.5,0.1-0.8,0.2c-0.3,0.1-0.5,0.2-0.7,0.3c-0.2,0.1-0.3,0.3-0.5,0.5c-0.1,0.2-0.2,0.5-0.2,0.8
		c0,0.3,0.1,0.6,0.2,0.8c0.1,0.2,0.3,0.4,0.5,0.5s0.4,0.2,0.7,0.3c0.3,0.1,0.5,0.1,0.8,0.1c0.7,0,1.2-0.1,1.6-0.4s0.7-0.5,0.9-0.8
		c0.2-0.3,0.3-0.7,0.3-1c0-0.3,0.1-0.6,0.1-0.8V21.1z"/>
	<path fill="#038E38" d="M97.1,9.6v9.6l4.5-4.6h4.2l-4.9,4.8l5.4,8.2H102l-3.6-5.8L97.1,23v4.5h-3.6V9.6H97.1z"/>
	<path fill="#038E38" d="M107.4,18.5c0-0.8,0.3-1.5,0.6-2.1c0.4-0.6,0.8-1,1.4-1.3c0.6-0.3,1.2-0.6,1.9-0.7c0.7-0.1,1.4-0.2,2.1-0.2
		c0.6,0,1.3,0,2,0.1c0.7,0.1,1.3,0.3,1.8,0.5c0.5,0.3,1,0.6,1.3,1.1c0.4,0.5,0.5,1.1,0.5,1.9v6.7c0,0.6,0,1.1,0.1,1.7
		s0.2,0.9,0.4,1.2H116c-0.1-0.2-0.1-0.4-0.2-0.6c0-0.2-0.1-0.4-0.1-0.6c-0.6,0.6-1.2,1-2,1.2s-1.5,0.4-2.3,0.4
		c-0.6,0-1.2-0.1-1.7-0.2c-0.5-0.1-1-0.4-1.4-0.7c-0.4-0.3-0.7-0.7-0.9-1.2s-0.3-1.1-0.3-1.7c0-0.7,0.1-1.3,0.4-1.8s0.6-0.9,1-1.1
		c0.4-0.3,0.9-0.5,1.4-0.6c0.5-0.1,1.1-0.3,1.6-0.3c0.5-0.1,1.1-0.1,1.6-0.2c0.5-0.1,1-0.1,1.4-0.2c0.4-0.1,0.7-0.2,1-0.4
		c0.2-0.2,0.3-0.5,0.3-0.8c0-0.4-0.1-0.7-0.2-0.9s-0.3-0.4-0.5-0.5c-0.2-0.1-0.5-0.2-0.7-0.2c-0.3,0-0.6-0.1-0.9-0.1
		c-0.7,0-1.2,0.1-1.7,0.4c-0.4,0.3-0.6,0.8-0.7,1.5H107.4z M115.6,21.1c-0.2,0.1-0.3,0.2-0.6,0.3c-0.2,0.1-0.5,0.1-0.7,0.2
		c-0.3,0.1-0.5,0.1-0.8,0.1c-0.3,0-0.6,0.1-0.8,0.1c-0.3,0.1-0.5,0.1-0.8,0.2c-0.3,0.1-0.5,0.2-0.7,0.3c-0.2,0.1-0.3,0.3-0.5,0.5
		c-0.1,0.2-0.2,0.5-0.2,0.8c0,0.3,0.1,0.6,0.2,0.8c0.1,0.2,0.3,0.4,0.5,0.5s0.4,0.2,0.7,0.3c0.3,0.1,0.5,0.1,0.8,0.1
		c0.7,0,1.2-0.1,1.6-0.4c0.4-0.2,0.7-0.5,0.8-0.8c0.2-0.3,0.3-0.7,0.3-1c0-0.3,0.1-0.6,0.1-0.8V21.1z"/>
	<path fill="#038E38" d="M130.7,27.4v-1.8h-0.1c-0.5,0.8-1,1.3-1.8,1.6c-0.7,0.3-1.5,0.5-2.2,0.5c-0.9,0-1.7-0.1-2.3-0.4
		s-1.1-0.6-1.4-1.1c-0.3-0.5-0.6-1-0.7-1.7c-0.1-0.7-0.2-1.4-0.2-2.2v-7.9h3.5v7.3c0,1.1,0.2,1.9,0.5,2.4c0.3,0.5,0.9,0.8,1.8,0.8
		c1,0,1.7-0.3,2.1-0.9c0.4-0.6,0.6-1.5,0.6-2.8v-6.8h3.6v12.9H130.7z"/>
	<path fill="#038E38" d="M135.4,16.9v-2.4h2.1v-1c0-1.2,0.4-2.1,1.1-2.8c0.7-0.7,1.8-1.1,3.2-1.1c0.3,0,0.6,0,1,0
		c0.3,0,0.6,0,0.9,0.1v2.6c-0.4,0-0.9-0.1-1.3-0.1c-0.5,0-0.8,0.1-1,0.3s-0.3,0.6-0.3,1.1v0.8h2.5v2.4h-2.5v10.5h-3.5V16.9H135.4z"
		/>
	<path fill="#038E38" d="M148.6,9.6v6.7h0.1c0.5-0.8,1-1.3,1.7-1.6c0.7-0.3,1.4-0.5,2-0.5c1,0,1.7,0.1,2.3,0.4
		c0.6,0.3,1.1,0.6,1.4,1.1c0.3,0.5,0.6,1,0.7,1.7c0.1,0.7,0.2,1.4,0.2,2.2v8h-3.5v-7.3c0-1.1-0.2-1.9-0.5-2.4s-0.9-0.8-1.8-0.8
		c-1,0-1.7,0.3-2.1,0.9c-0.4,0.6-0.6,1.5-0.6,2.8v6.8h-3.6V9.6H148.6z"/>
	<path fill="#038E38" d="M160,18.2c0.3-0.8,0.8-1.6,1.4-2.1c0.6-0.6,1.3-1,2.1-1.4c0.8-0.3,1.7-0.5,2.8-0.5s1.9,0.2,2.8,0.5
		c0.8,0.3,1.5,0.8,2.1,1.4c0.6,0.6,1,1.3,1.3,2.1c0.3,0.8,0.5,1.8,0.5,2.8c0,1-0.2,2-0.5,2.8s-0.8,1.5-1.3,2.1
		c-0.6,0.6-1.3,1-2.1,1.4s-1.7,0.5-2.8,0.5s-1.9-0.2-2.8-0.5s-1.5-0.8-2.1-1.4c-0.6-0.6-1-1.3-1.4-2.1s-0.5-1.8-0.5-2.8
		C159.5,20,159.6,19,160,18.2z M163.2,22.5c0.1,0.5,0.3,0.9,0.5,1.3c0.2,0.4,0.6,0.7,1,0.9s0.9,0.3,1.5,0.3s1.1-0.1,1.5-0.3
		c0.4-0.2,0.7-0.5,1-0.9s0.4-0.8,0.5-1.3c0.1-0.5,0.2-1,0.2-1.5c0-0.5-0.1-1-0.2-1.5s-0.3-0.9-0.5-1.3s-0.6-0.7-1-0.9
		c-0.4-0.2-0.9-0.4-1.5-0.4s-1.1,0.1-1.5,0.4s-0.7,0.6-1,0.9c-0.2,0.4-0.4,0.8-0.5,1.3c-0.1,0.5-0.2,1-0.2,1.5
		C163,21.5,163.1,22,163.2,22.5z"/>
	<path fill="#038E38" d="M173.8,16.9v-2.4h2.1v-1c0-1.2,0.4-2.1,1.1-2.8c0.7-0.7,1.8-1.1,3.2-1.1c0.3,0,0.6,0,1,0
		c0.3,0,0.6,0,0.9,0.1v2.6c-0.4,0-0.9-0.1-1.3-0.1c-0.5,0-0.8,0.1-1,0.3s-0.3,0.6-0.3,1.1v0.8h2.5v2.4h-2.5v10.5h-3.5V16.9H173.8z"
		/>
</g>
<g>
	<path fill="#999999" d="M189.8,44.2V3.8h-5.5V0.3h9.5v47.3h-9.5v-3.5H189.8z"/>
</g>
<g>
	<path fill="#999999" d="M4.8,3.8v40.4h5.5v3.5H0.7V0.3h9.5v3.5H4.8z"/>
</g>
<g>
	<path fill="#999999" d="M119.8,33.3v1h-1.3v4.1c0,0.1,0,0.2,0,0.3c0,0.1,0.1,0.1,0.1,0.2c0.1,0,0.1,0.1,0.2,0.1s0.2,0,0.4,0h0.5v1
		H119c-0.3,0-0.5,0-0.7-0.1s-0.4-0.1-0.5-0.2c-0.1-0.1-0.2-0.2-0.3-0.4s-0.1-0.4-0.1-0.7v-4.2h-1.1v-1h1.1v-2h1.1v2H119.8z"/>
	<path fill="#999999" d="M125.4,39.5c-0.5,0.4-1.1,0.6-1.9,0.6c-0.5,0-1-0.1-1.4-0.3c-0.4-0.2-0.7-0.4-1-0.7
		c-0.3-0.3-0.5-0.7-0.6-1.1c-0.1-0.4-0.2-0.9-0.2-1.4c0-0.5,0.1-1,0.2-1.4c0.2-0.4,0.4-0.8,0.6-1.1c0.3-0.3,0.6-0.5,1-0.7
		c0.4-0.2,0.8-0.3,1.2-0.3c0.6,0,1.1,0.1,1.5,0.4c0.4,0.2,0.7,0.5,0.9,0.9s0.4,0.8,0.5,1.2c0.1,0.4,0.1,0.9,0.1,1.3h-4.9
		c0,0.3,0,0.6,0.1,0.8s0.2,0.5,0.4,0.7c0.2,0.2,0.4,0.4,0.6,0.5c0.3,0.1,0.6,0.2,0.9,0.2c0.5,0,0.8-0.1,1.1-0.3
		c0.3-0.2,0.5-0.5,0.6-1h1.1C126.2,38.6,125.9,39.1,125.4,39.5z M125.2,35.3c-0.1-0.2-0.2-0.4-0.4-0.6c-0.2-0.2-0.4-0.3-0.6-0.4
		c-0.2-0.1-0.5-0.1-0.7-0.1c-0.3,0-0.5,0-0.8,0.1c-0.2,0.1-0.4,0.2-0.6,0.4s-0.3,0.4-0.4,0.6c-0.1,0.2-0.1,0.5-0.2,0.7h3.8
		C125.3,35.7,125.3,35.5,125.2,35.3z"/>
	<path fill="#999999" d="M131.3,34.5c-0.3-0.2-0.6-0.3-1.1-0.3c-0.4,0-0.7,0.1-1,0.2c-0.3,0.1-0.5,0.3-0.6,0.6
		c-0.2,0.2-0.3,0.5-0.3,0.8c-0.1,0.3-0.1,0.6-0.1,1c0,0.3,0,0.6,0.1,0.9s0.2,0.5,0.3,0.8c0.2,0.2,0.4,0.4,0.6,0.5
		c0.2,0.1,0.5,0.2,0.9,0.2c0.5,0,1-0.1,1.3-0.4c0.3-0.3,0.5-0.7,0.6-1.2h1.1c-0.1,0.8-0.4,1.4-0.9,1.9c-0.5,0.4-1.2,0.7-2,0.7
		c-0.5,0-0.9-0.1-1.3-0.2s-0.7-0.4-1-0.7c-0.3-0.3-0.5-0.7-0.6-1.1c-0.1-0.4-0.2-0.9-0.2-1.4c0-0.5,0.1-1,0.2-1.4
		c0.1-0.4,0.3-0.8,0.6-1.1c0.3-0.3,0.6-0.6,1-0.8c0.4-0.2,0.8-0.3,1.4-0.3c0.4,0,0.7,0,1,0.1c0.3,0.1,0.6,0.2,0.9,0.4
		s0.5,0.4,0.6,0.7c0.2,0.3,0.3,0.6,0.3,1h-1.1C131.7,35,131.5,34.7,131.3,34.5z"/>
	<path fill="#999999" d="M135,30.8v3.5h0c0.1-0.2,0.2-0.4,0.4-0.5c0.2-0.1,0.3-0.3,0.5-0.3c0.2-0.1,0.4-0.2,0.6-0.2
		c0.2,0,0.4-0.1,0.6-0.1c0.4,0,0.8,0.1,1.1,0.2c0.3,0.1,0.5,0.3,0.7,0.5c0.2,0.2,0.3,0.5,0.4,0.8c0.1,0.3,0.1,0.6,0.1,1v4.3h-1.1
		v-4.5c0-0.4-0.1-0.7-0.4-1c-0.2-0.2-0.6-0.4-1-0.4c-0.3,0-0.6,0.1-0.9,0.2s-0.4,0.2-0.6,0.4s-0.3,0.4-0.4,0.7
		c-0.1,0.3-0.1,0.5-0.1,0.8v3.7h-1.1v-9.1H135z"/>
	<path fill="#999999" d="M145.1,30.8v3.4h0c0.2-0.4,0.5-0.6,0.8-0.8c0.4-0.2,0.8-0.2,1.3-0.2c0.5,0,1,0.1,1.3,0.3s0.7,0.4,0.9,0.8
		c0.2,0.3,0.4,0.7,0.6,1.1c0.1,0.4,0.2,0.9,0.2,1.3c0,0.5-0.1,0.9-0.2,1.3c-0.1,0.4-0.3,0.8-0.6,1.1s-0.6,0.6-0.9,0.7
		c-0.4,0.2-0.8,0.3-1.3,0.3c-0.2,0-0.3,0-0.5-0.1s-0.4-0.1-0.6-0.2c-0.2-0.1-0.4-0.2-0.6-0.3s-0.3-0.3-0.4-0.5h0v0.9h-1.1v-9.1
		H145.1z M149,35.7c-0.1-0.3-0.2-0.6-0.4-0.8c-0.2-0.2-0.4-0.4-0.6-0.5s-0.6-0.2-0.9-0.2c-0.4,0-0.7,0.1-0.9,0.2
		c-0.3,0.1-0.5,0.3-0.6,0.6s-0.3,0.5-0.3,0.8s-0.1,0.6-0.1,0.9c0,0.3,0,0.6,0.1,0.9c0.1,0.3,0.2,0.6,0.4,0.8
		c0.2,0.2,0.4,0.4,0.6,0.6c0.3,0.1,0.6,0.2,1,0.2s0.7-0.1,0.9-0.2c0.2-0.1,0.5-0.3,0.6-0.6s0.3-0.5,0.3-0.8c0.1-0.3,0.1-0.6,0.1-0.9
		C149.1,36.3,149.1,36,149,35.7z"/>
	<path fill="#999999" d="M152.5,30.8v9.1h-1.1v-9.1H152.5z"/>
	<path fill="#999999" d="M153.7,35.3c0.1-0.4,0.3-0.8,0.6-1.1c0.3-0.3,0.6-0.6,1-0.7c0.4-0.2,0.9-0.3,1.4-0.3c0.5,0,1,0.1,1.4,0.3
		c0.4,0.2,0.7,0.4,1,0.7c0.3,0.3,0.5,0.7,0.6,1.1c0.1,0.4,0.2,0.9,0.2,1.4s-0.1,0.9-0.2,1.3c-0.1,0.4-0.3,0.8-0.6,1.1
		s-0.6,0.6-1,0.7c-0.4,0.2-0.9,0.3-1.4,0.3c-0.5,0-1-0.1-1.4-0.3s-0.7-0.4-1-0.7c-0.3-0.3-0.5-0.7-0.6-1.1c-0.1-0.4-0.2-0.9-0.2-1.3
		S153.6,35.7,153.7,35.3z M154.8,37.7c0.1,0.3,0.3,0.6,0.4,0.8s0.4,0.4,0.7,0.5c0.2,0.1,0.5,0.2,0.8,0.2c0.3,0,0.5-0.1,0.8-0.2
		c0.2-0.1,0.5-0.3,0.7-0.5s0.3-0.5,0.4-0.8c0.1-0.3,0.2-0.7,0.2-1.1s-0.1-0.8-0.2-1.1c-0.1-0.3-0.3-0.6-0.4-0.8s-0.4-0.4-0.7-0.5
		c-0.3-0.1-0.5-0.2-0.8-0.2c-0.3,0-0.5,0.1-0.8,0.2s-0.5,0.3-0.7,0.5s-0.3,0.5-0.4,0.8c-0.1,0.3-0.2,0.7-0.2,1.1
		S154.7,37.4,154.8,37.7z"/>
	<path fill="#999999" d="M165.9,41.8c-0.5,0.5-1.3,0.8-2.3,0.8c-0.3,0-0.6,0-0.9-0.1c-0.3-0.1-0.6-0.2-0.9-0.3s-0.5-0.4-0.6-0.6
		c-0.2-0.2-0.3-0.5-0.3-0.9h1.1c0,0.2,0.1,0.4,0.2,0.5s0.3,0.2,0.4,0.3c0.2,0.1,0.3,0.1,0.5,0.2s0.4,0.1,0.6,0.1
		c0.4,0,0.7-0.1,0.9-0.2c0.2-0.1,0.4-0.3,0.6-0.5c0.2-0.2,0.3-0.5,0.3-0.8c0.1-0.3,0.1-0.6,0.1-1v-0.4h0c-0.2,0.4-0.5,0.7-0.8,0.9
		c-0.4,0.2-0.8,0.3-1.2,0.3c-0.5,0-0.9-0.1-1.3-0.3c-0.4-0.2-0.7-0.4-0.9-0.7s-0.4-0.7-0.6-1.1c-0.1-0.4-0.2-0.8-0.2-1.3
		c0-0.4,0.1-0.8,0.2-1.2s0.3-0.8,0.5-1.1s0.6-0.6,0.9-0.8c0.4-0.2,0.9-0.3,1.4-0.3c0.4,0,0.8,0.1,1.1,0.3s0.6,0.5,0.8,0.8h0v-0.9h1
		v6C166.6,40.4,166.3,41.2,165.9,41.8z M164.5,38.8c0.2-0.1,0.5-0.3,0.6-0.6c0.2-0.2,0.3-0.5,0.3-0.8c0.1-0.3,0.1-0.6,0.1-0.9
		c0-0.3,0-0.6-0.1-0.9c-0.1-0.3-0.2-0.5-0.3-0.8s-0.3-0.4-0.6-0.5s-0.5-0.2-0.9-0.2c-0.3,0-0.6,0.1-0.9,0.2
		c-0.2,0.1-0.4,0.3-0.6,0.5s-0.3,0.5-0.3,0.8c-0.1,0.3-0.1,0.6-0.1,0.9c0,0.3,0,0.6,0.1,0.9s0.2,0.6,0.3,0.8
		c0.1,0.2,0.3,0.4,0.6,0.6c0.2,0.1,0.5,0.2,0.9,0.2S164.2,39,164.5,38.8z"/>
</g>
<g>
</g>
<g>
</g>
<g>
</g>
<g>
</g>
<g>
</g>
<g>
</g>
</svg>
